<?xml version="1.0" standalone="no"?>
<!DOCTYPE svg PUBLIC "-//W3C//DTD SVG 1.1//EN"
        "http://www.w3.org/Graphics/SVG/1.1/DTD/svg11.dtd">
<svg viewBox="0 0 16 16" id="f-customize-form-on" width="100%" height="100%">
    <title>f-customize-form-on</title>
    <path fill="#777" d="M0 8.654h7.02v1H0zM0 4.577h16v1H0zM0 .5h16v1H0z"></path>
    <path d="M14.918 11.397c0-2-1.6-3.6-3.6-3.6-.97 0-1.84.38-2.484.994-.32.306-.58.67-.77 1.077-.216.466-.346.98-.346 1.53 0 .06.015.12.018.18.053 1.078.57 2.018 1.36 2.64.612.482 1.376.78 2.222.78 2 0 3.6-1.6 3.6-3.6z"
          fill="#FFFFFF"></path>
    <path d="M14.7 9.8l.6-.9-1-1-.9.4c-.2-.2-.6-.3-.9-.4l-.2-1h-1.5l-.2.9c-.3 0-.6.2-.9.3l-.9-.6-1 1 .4.9c-.2.2-.3.6-.4.9l-1 .2V12l1 .2c0 .3.2.6.3.9l-.6.9 1 1 .9-.4c.2.2.6.3.9.4l.2 1H12l.2-1c.3 0 .6-.2.9-.3l.898.6 1-1-.398-.9c.2-.2.3-.6.4-.9l1-.2v-1.4l-1-.2c0-.3-.2-.6-.3-.9zm-3.4 4.3c-1.5 0-2.6-1.1-2.6-2.6.1-1.5 1.2-2.6 2.7-2.6s2.6 1.3 2.5 2.6c0 1.5-1.1 2.6-2.6 2.6z"
          fill="#777"></path>
    <path d="M14.7 9.8l.6-.9-1-1-.9.4c-.2-.2-.6-.3-.9-.4l-.2-1h-1.5l-.2.9c-.3 0-.6.2-.9.3l-.9-.6-1 1 .4.9c-.2.2-.3.6-.4.9l-1 .2V12l1 .2c0 .3.2.6.3.9l-.6.9 1 1 .9-.4c.2.2.6.3.9.4l.2 1H12l.2-1c.3 0 .6-.2.9-.3l.898.6 1-1-.398-.9c.2-.2.3-.6.4-.9l1-.2v-1.4l-1-.2c0-.3-.2-.6-.3-.9z"
          fill="none"></path>
</svg>